@startuml Colors

class ColorMap {
    light: ColorSchemeType
    dark: ColorSchemeType
}

class CurrentTheme{

}

class ThemeSlice{
    +theme : 'light' | 'dark'
}
CurrentTheme --> ThemeSlice: Retrieves
ThemeSlice --> Redux: Stored In
ColorConfig --> ColorMap: Builds off
ColorConfig --> CurrentTheme: Retrieves
@enduml
